<svg width="365" height="583" viewBox="0 0 365 583" fill="none" xmlns="http://www.w3.org/2000/svg">
<g opacity="0.3" filter="url(#filter0_f)">
<ellipse cx="182.5" cy="551.5" rx="160.5" ry="9.5" fill="black"/>
</g>
<path fill-rule="evenodd" clip-rule="evenodd" d="M320.756 128.8C321.443 128.8 322 129.357 322 130.044V192.267C322 192.954 321.443 193.511 320.756 193.511C320.068 193.511 319.511 192.954 319.511 192.267V130.044C319.511 129.357 320.068 128.8 320.756 128.8Z" fill="white"/>
<path fill-rule="evenodd" clip-rule="evenodd" d="M43.2444 166.133C43.9317 166.133 44.4889 166.69 44.4889 167.378V205.956C44.4889 206.643 43.9317 207.2 43.2444 207.2C42.5572 207.2 42 206.643 42 205.956V167.378C42 166.69 42.5572 166.133 43.2444 166.133Z" fill="white"/>
<path fill-rule="evenodd" clip-rule="evenodd" d="M43.2444 115.111C43.9317 115.111 44.4889 115.668 44.4889 116.356V154.933C44.4889 155.621 43.9317 156.178 43.2444 156.178C42.5572 156.178 42 155.621 42 154.933V116.356C42 115.668 42.5572 115.111 43.2444 115.111Z" fill="white"/>
<path fill-rule="evenodd" clip-rule="evenodd" d="M43.2451 75.2888C43.9323 75.2888 44.4895 75.846 44.4895 76.5333V95.8222C44.4895 96.5094 43.9323 97.0666 43.2451 97.0666C42.5578 97.0666 42.0006 96.5094 42.0006 95.8222V76.5333C42.0006 75.846 42.5578 75.2888 43.2451 75.2888Z" fill="white"/>
<path d="M196.311 558.756C195.743 558 194.84 557.511 193.822 557.511H170.177C169.159 557.511 168.256 558 167.688 558.756H97.309C78.7258 558.756 71.987 556.821 65.1933 553.187C58.3995 549.554 53.0678 544.222 49.4344 537.428C45.8011 530.635 43.8662 523.896 43.8662 505.313V53.4428C43.8662 34.8596 45.8011 28.1208 49.4344 21.3271C53.0678 14.5333 58.3995 9.20157 65.1933 5.56823C71.987 1.9349 78.7258 0 97.309 0L266.69 0C285.273 0 292.012 1.9349 298.806 5.56823C305.599 9.20157 310.931 14.5333 314.565 21.3271C318.198 28.1208 320.133 34.8596 320.133 53.4428V505.313C320.133 523.896 318.198 530.635 314.565 537.428C310.931 544.222 305.599 549.554 298.806 553.187C292.012 556.821 285.273 558.756 266.69 558.756H196.311Z" fill="#FCFCFC"/>
<path d="M196.311 558.756C195.743 558 194.84 557.511 193.822 557.511H170.177C169.159 557.511 168.256 558 167.688 558.756H97.309C78.7258 558.756 71.987 556.821 65.1933 553.187C58.3995 549.554 53.0678 544.222 49.4344 537.428C45.8011 530.635 43.8662 523.896 43.8662 505.313V53.4428C43.8662 34.8596 45.8011 28.1208 49.4344 21.3271C53.0678 14.5333 58.3995 9.20157 65.1933 5.56823C71.987 1.9349 78.7258 0 97.309 0L266.69 0C285.273 0 292.012 1.9349 298.806 5.56823C305.599 9.20157 310.931 14.5333 314.565 21.3271C318.198 28.1208 320.133 34.8596 320.133 53.4428V505.313C320.133 523.896 318.198 530.635 314.565 537.428C310.931 544.222 305.599 549.554 298.806 553.187C292.012 556.821 285.273 558.756 266.69 558.756H196.311Z" fill="url(#paint0_linear)" fill-opacity="0.06"/>
<path d="M320.133 501.511H315.155V505.244H320.133V501.511Z" fill="#F5F5F5"/>
<path d="M48.844 501.511H43.8662V505.244H48.844V501.511Z" fill="#F5F5F5"/>
<path d="M320.133 53.5111H315.155V57.2444H320.133V53.5111Z" fill="#F5F5F5"/>
<path d="M48.8445 53.5111H43.8667V57.2444H48.8445V53.5111Z" fill="#F5F5F5"/>
<path d="M96.0806 4.35559H267.918C284.559 4.35559 290.594 6.08834 296.678 9.34207C302.762 12.5958 307.537 17.3705 310.79 23.4545C314.044 29.5384 315.777 35.5731 315.777 52.2148V506.541C315.777 523.182 314.044 529.217 310.79 535.301C307.537 541.385 302.762 546.16 296.678 549.413C290.594 552.667 284.559 554.4 267.918 554.4H96.0806C79.4389 554.4 73.4043 552.667 67.3203 549.413C61.2364 546.16 56.4616 541.385 53.2079 535.301C49.9542 529.217 48.2214 523.182 48.2214 506.541V52.2148C48.2214 35.5731 49.9542 29.5384 53.2079 23.4545C56.4616 17.3705 61.2364 12.5958 67.3203 9.34207C73.4043 6.08834 79.4389 4.35559 96.0806 4.35559Z" fill="#FAFAFA"/>
<path fill-rule="evenodd" clip-rule="evenodd" d="M96.0803 4.66675C80.9547 4.66675 74.3297 5.94609 67.4667 9.61646C61.437 12.8412 56.7067 17.5715 53.4819 23.6012C49.8116 30.4642 48.5322 37.0892 48.5322 52.2148V506.541C48.5322 521.666 49.8116 528.292 53.4819 535.154C56.7067 541.184 61.437 545.914 67.4667 549.139C74.3297 552.81 80.9547 554.089 96.0803 554.089H267.917C283.043 554.089 289.668 552.81 296.531 549.139C302.561 545.914 307.291 541.184 310.516 535.154C314.186 528.292 315.466 521.666 315.466 506.541V52.2148C315.466 37.0892 314.186 30.4642 310.516 23.6012C307.291 17.5715 302.561 12.8412 296.531 9.61646C289.668 5.94609 283.043 4.66675 267.917 4.66675H96.0803Z" fill="url(#paint1_linear)" fill-opacity="0.06" stroke="#F0F0F0"/>
<path d="M167.377 20.5333H196.622C197.824 20.5333 198.799 21.5083 198.799 22.7111C198.799 23.9139 197.824 24.8889 196.622 24.8889H167.377C166.174 24.8889 165.199 23.9139 165.199 22.7111C165.199 21.5083 166.174 20.5333 167.377 20.5333Z" fill="#F5F5F5"/>
<g filter="url(#filter1_i)">
<path d="M167.377 20.5333H196.622C197.824 20.5333 198.799 21.5083 198.799 22.7111C198.799 23.9139 197.824 24.8889 196.622 24.8889H167.377C166.174 24.8889 165.199 23.9139 165.199 22.7111C165.199 21.5083 166.174 20.5333 167.377 20.5333Z" fill="black"/>
</g>
<path d="M211.555 26.7555C213.789 26.7555 215.6 24.9448 215.6 22.7111C215.6 20.4774 213.789 18.6666 211.555 18.6666C209.322 18.6666 207.511 20.4774 207.511 22.7111C207.511 24.9448 209.322 26.7555 211.555 26.7555Z" fill="#F5F5F5"/>
<g filter="url(#filter2_i)">
<path d="M211.555 26.7555C213.789 26.7555 215.6 24.9448 215.6 22.7111C215.6 20.4774 213.789 18.6666 211.555 18.6666C209.322 18.6666 207.511 20.4774 207.511 22.7111C207.511 24.9448 209.322 26.7555 211.555 26.7555Z" fill="black"/>
</g>
<path d="M211.555 24.8889C212.758 24.8889 213.733 23.9139 213.733 22.7111C213.733 21.5083 212.758 20.5333 211.555 20.5333C210.352 20.5333 209.377 21.5083 209.377 22.7111C209.377 23.9139 210.352 24.8889 211.555 24.8889Z" fill="#FFFAFA"/>
<mask id="mask0" mask-type="alpha" maskUnits="userSpaceOnUse" x="60" y="16" width="244" height="526">
<path d="M113.854 20.1469C114.309 24.5173 114.902 27.386 115.633 28.7532C116.989 31.2881 118.978 33.2776 121.513 34.6333C124.048 35.9891 126.768 36.711 132.47 36.711H231.529C237.232 36.711 239.951 35.9891 242.486 34.6333C245.021 33.2776 247.011 31.2881 248.366 28.7532C249.098 27.386 249.691 24.5173 250.145 20.1469C250.343 18.2449 251.946 16.7999 253.858 16.7999H270.629C282.001 16.7999 286.125 17.984 290.282 20.2074C294.439 22.4307 297.702 25.6935 299.926 29.8508C302.149 34.0082 303.333 38.1319 303.333 49.5037V509.252C303.333 520.624 302.149 524.747 299.926 528.905C297.702 533.062 294.439 536.325 290.282 538.548C286.125 540.771 282.001 541.955 270.629 541.955H93.3702C81.9983 541.955 77.8746 540.771 73.7173 538.548C69.5599 536.325 66.2972 533.062 64.0738 528.905C61.8504 524.747 60.6664 520.624 60.6664 509.252V49.5037C60.6664 38.1319 61.8504 34.0082 64.0738 29.8508C66.2972 25.6935 69.5599 22.4307 73.7173 20.2074C77.8746 17.984 81.9983 16.7999 93.3702 16.7999L110.141 16.7999C112.053 16.7999 113.656 18.2449 113.854 20.1469Z" fill="white"/>
</mask>
<g mask="url(#mask0)">
<path d="M113.854 20.1469C114.309 24.5173 114.902 27.386 115.633 28.7532C116.989 31.2881 118.978 33.2776 121.513 34.6333C124.048 35.9891 126.768 36.711 132.47 36.711H231.529C237.232 36.711 239.951 35.9891 242.486 34.6333C245.021 33.2776 247.011 31.2881 248.366 28.7532C249.098 27.386 249.691 24.5173 250.145 20.1469C250.343 18.2449 251.946 16.7999 253.858 16.7999H270.629C282.001 16.7999 286.125 17.984 290.282 20.2074C294.439 22.4307 297.702 25.6935 299.926 29.8508C302.149 34.0082 303.333 38.1319 303.333 49.5037V509.252C303.333 520.624 302.149 524.747 299.926 528.905C297.702 533.062 294.439 536.325 290.282 538.548C286.125 540.771 282.001 541.955 270.629 541.955H93.3702C81.9983 541.955 77.8746 540.771 73.7173 538.548C69.5599 536.325 66.2972 533.062 64.0738 528.905C61.8504 524.747 60.6664 520.624 60.6664 509.252V49.5037C60.6664 38.1319 61.8504 34.0082 64.0738 29.8508C66.2972 25.6935 69.5599 22.4307 73.7173 20.2074C77.8746 17.984 81.9983 16.7999 93.3702 16.7999L110.141 16.7999C112.053 16.7999 113.656 18.2449 113.854 20.1469Z" fill="#F8F8F8"/>
<path d="M113.854 20.1469C114.309 24.5173 114.902 27.386 115.633 28.7532C116.989 31.2881 118.978 33.2776 121.513 34.6333C124.048 35.9891 126.768 36.711 132.47 36.711H231.529C237.232 36.711 239.951 35.9891 242.486 34.6333C245.021 33.2776 247.011 31.2881 248.366 28.7532C249.098 27.386 249.691 24.5173 250.145 20.1469C250.343 18.2449 251.946 16.7999 253.858 16.7999H270.629C282.001 16.7999 286.125 17.984 290.282 20.2074C294.439 22.4307 297.702 25.6935 299.926 29.8508C302.149 34.0082 303.333 38.1319 303.333 49.5037V509.252C303.333 520.624 302.149 524.747 299.926 528.905C297.702 533.062 294.439 536.325 290.282 538.548C286.125 540.771 282.001 541.955 270.629 541.955H93.3702C81.9983 541.955 77.8746 540.771 73.7173 538.548C69.5599 536.325 66.2972 533.062 64.0738 528.905C61.8504 524.747 60.6664 520.624 60.6664 509.252V49.5037C60.6664 38.1319 61.8504 34.0082 64.0738 29.8508C66.2972 25.6935 69.5599 22.4307 73.7173 20.2074C77.8746 17.984 81.9983 16.7999 93.3702 16.7999L110.141 16.7999C112.053 16.7999 113.656 18.2449 113.854 20.1469Z"/>
<path d="M303.333 16.8H60.6664V541.956H303.333V16.8Z" fill="#F6F6F6"/>
<path d="M303.333 16.8H60.6664V541.956H303.333V16.8Z" fill="#EAEAEA"/>
<rect x="61.4125" y="-51.9199" width="242.288" height="3386.17"/>
</g>
<defs>
<filter id="filter0_f" x="0" y="520" width="365" height="63" filterUnits="userSpaceOnUse" color-interpolation-filters="sRGB">
<feFlood flood-opacity="0" result="BackgroundImageFix"/>
<feBlend mode="normal" in="SourceGraphic" in2="BackgroundImageFix" result="shape"/>
<feGaussianBlur stdDeviation="11" result="effect1_foregroundBlur"/>
</filter>
<filter id="filter1_i" x="165.199" y="20.5333" width="33.6" height="5.35556" filterUnits="userSpaceOnUse" color-interpolation-filters="sRGB">
<feFlood flood-opacity="0" result="BackgroundImageFix"/>
<feBlend mode="normal" in="SourceGraphic" in2="BackgroundImageFix" result="shape"/>
<feColorMatrix in="SourceAlpha" type="matrix" values="0 0 0 0 0 0 0 0 0 0 0 0 0 0 0 0 0 0 127 0" result="hardAlpha"/>
<feOffset dy="1"/>
<feGaussianBlur stdDeviation="1.5"/>
<feComposite in2="hardAlpha" operator="arithmetic" k2="-1" k3="1"/>
<feColorMatrix type="matrix" values="0 0 0 0 0 0 0 0 0 0 0 0 0 0 0 0 0 0 0.0526778 0"/>
<feBlend mode="normal" in2="shape" result="effect1_innerShadow"/>
</filter>
<filter id="filter2_i" x="207.511" y="18.6666" width="8.08889" height="9.08889" filterUnits="userSpaceOnUse" color-interpolation-filters="sRGB">
<feFlood flood-opacity="0" result="BackgroundImageFix"/>
<feBlend mode="normal" in="SourceGraphic" in2="BackgroundImageFix" result="shape"/>
<feColorMatrix in="SourceAlpha" type="matrix" values="0 0 0 0 0 0 0 0 0 0 0 0 0 0 0 0 0 0 127 0" result="hardAlpha"/>
<feOffset dy="1"/>
<feGaussianBlur stdDeviation="1.5"/>
<feComposite in2="hardAlpha" operator="arithmetic" k2="-1" k3="1"/>
<feColorMatrix type="matrix" values="0 0 0 0 0 0 0 0 0 0 0 0 0 0 0 0 0 0 0.0526778 0"/>
<feBlend mode="normal" in2="shape" result="effect1_innerShadow"/>
</filter>
<linearGradient id="paint0_linear" x1="319.323" y1="-132.499" x2="319.323" y2="446.799" gradientUnits="userSpaceOnUse">
<stop stop-color="white" stop-opacity="0.5"/>
<stop offset="0.966885" stop-color="white" stop-opacity="0.5"/>
<stop offset="1" stop-opacity="0.5"/>
</linearGradient>
<linearGradient id="paint1_linear" x1="315.466" y1="279.378" x2="48.5322" y2="279.378" gradientUnits="userSpaceOnUse">
<stop stop-color="white" stop-opacity="0.5"/>
<stop offset="0.952126" stop-color="white" stop-opacity="0.5"/>
<stop offset="1" stop-opacity="0.5"/>
</linearGradient>
</defs>
</svg>
